<?xml version="1.0"?>
<svg xmlns="http://www.w3.org/2000/svg" xmlns:xlink="http://www.w3.org/1999/xlink" class="" id="Capa_1" style="enable-background:new 0 0 27.857 27.857;" viewBox="0 0 27.857 27.857" x="0px" y="0px" width="512px" height="512px" version="1.1" xml:space="preserve"><g><g>
	<g>
		<path class="active-path" d="M 2.203 5.331 l 10.034 7.948 c 0.455 0.36 1.082 0.52 1.691 0.49 c 0.608 0.03 1.235 -0.129 1.69 -0.49 l 10.034 -7.948 c 0.804 -0.633 0.622 -1.152 -0.398 -1.152 H 13.929 H 2.604 C 1.583 4.179 1.401 4.698 2.203 5.331 Z" data-original="#010002" data-old_color="#010002" fill="#CDF98B"/>
		<path class="active-path" d="M 26.377 7.428 l -10.965 8.325 c -0.41 0.308 -0.947 0.458 -1.482 0.451 c -0.536 0.007 -1.073 -0.144 -1.483 -0.451 L 1.48 7.428 C 0.666 6.811 0 7.142 0 8.163 v 13.659 c 0 1.021 0.836 1.857 1.857 1.857 h 12.071 H 26 c 1.021 0 1.857 -0.836 1.857 -1.857 V 8.163 C 27.857 7.142 27.191 6.811 26.377 7.428 Z" data-original="#010002" data-old_color="#010002" fill="#CDF98B"/>
	</g>
</g></g> </svg>
